# xmcd
#
# Track frame offsets: 
#        150
#        15766
#        37350
#        52620
#        68756
#        92341
#        115168
#        135100
#        153788
#        177582
#        201576
#
# Disc length: 2797 seconds
#
# Revision: 0
# Processed by: cddbd v1.5.2PL0 Copyright (c) Steve Scherf et al.
# Submitted via: ExactAudioCopy v0.99pb4
#
DISCID=810aeb0b
DTITLE=Dot Creek - Ill Seen, Ill Said
DYEAR=2000
DGENRE=Indie
TTITLE0=Girl From The Hills
TTITLE1=Trailer
TTITLE2=The Blacque Waltz
TTITLE3=Blinkered
TTITLE4=A Weight
TTITLE5=Nuisance Gator
TTITLE6=Unquiet
TTITLE7=Cast
TTITLE8=Wintering
TTITLE9=The Unfortunate Magpie
TTITLE10=Untitled
EXTD=
EXTT0=
EXTT1=
EXTT2=
EXTT3=
EXTT4=
EXTT5=
EXTT6=
EXTT7=
EXTT8=
EXTT9=
EXTT10=
PLAYORDER=
